<svg width="32" height="32" viewBox="0 0 32 32" fill="none" xmlns="http://www.w3.org/2000/svg">
<path d="M28.0002 0H4.00024C1.80024 0 0.000244141 1.8 0.000244141 4V28C0.000244141 30.2 1.80024 32 4.00024 32H28.0002C30.2002 32 32.0002 30.2 32.0002 28V4C32.0002 1.8 30.2002 0 28.0002 0ZM9.60024 26.4H4.80024V11.2H9.60024V26.4ZM7.20024 9.2C5.60024 9.2 4.40024 8 4.40024 6.4C4.40024 4.8 5.60024 3.6 7.20024 3.6C8.80024 3.6 10.0002 4.8 10.0002 6.4C10.0002 8 8.80024 9.2 7.20024 9.2ZM27.2002 26.4H22.4002V18.4C22.4002 16.4 21.6002 15.2 20.0002 15.2C18.8002 15.2 18.0002 16 17.6002 16.8C17.4002 17.2 17.4002 17.6 17.4002 18V26.4H12.6002C12.6002 26.4 12.6002 12.4 12.6002 11.2H17.4002V13.2C18.0002 12.2 19.2002 10.8 21.6002 10.8C24.6002 10.8 27.2002 12.8 27.2002 17.2V26.4Z" fill="#CCCCCC"/>
</svg>
